<?xml version="1.0" ?><!DOCTYPE svg  PUBLIC '-//W3C//DTD SVG 1.1//EN'  'http://www.w3.org/Graphics/SVG/1.1/DTD/svg11.dtd'><svg enable-background="new 0 0 130.829 84.155" height="84.155px" id="Layer_1" version="1.1" viewBox="0 0 130.829 84.155" width="130.829px" xml:space="preserve" xmlns="http://www.w3.org/2000/svg" xmlns:xlink="http://www.w3.org/1999/xlink"><g id="cloud_x5F_1"><g><path d="M66.417,79.416c-7.384,0-13.475-1.771-14.479-4.073c-0.097,0.219-0.163,0.441-0.163,0.668v3.405    c0,2.618,6.557,4.74,14.643,4.74s14.642-2.122,14.642-4.74v-3.405c0-0.227-0.066-0.449-0.163-0.668    C79.892,77.645,73.8,79.416,66.417,79.416z"/><path d="M66.417,72.606c-7.384,0-13.475-1.771-14.479-4.073c-0.097,0.22-0.163,0.442-0.163,0.668v3.405    c0,2.619,6.557,4.741,14.643,4.741s14.642-2.122,14.642-4.741v-3.405c0-0.226-0.066-0.448-0.163-0.668    C79.892,70.835,73.8,72.606,66.417,72.606z"/><path d="M66.417,65.798c-7.384,0-13.475-1.771-14.479-4.073c-0.097,0.22-0.163,0.442-0.163,0.671v3.402    c0,2.619,6.557,4.741,14.643,4.741s14.642-2.122,14.642-4.741v-3.402c0-0.229-0.066-0.451-0.163-0.671    C79.892,64.027,73.8,65.798,66.417,65.798z"/><path d="M66.417,50.843c-8.086,0-14.643,2.123-14.643,4.742v3.401c0,2.619,6.557,4.741,14.643,4.741s14.642-2.122,14.642-4.741    v-3.401C81.059,52.968,74.503,50.843,66.417,50.843z"/><path d="M110.227,36.14h-0.53c-1.436-12.61-12.136-22.407-25.129-22.407c-4.494,0-8.711,1.176-12.369,3.231    C67.349,6.925,57.071-0.001,45.175-0.001c-16.567,0-29.997,13.431-29.997,29.996c0,2.298,0.268,4.532,0.756,6.682    C6.805,38.791-0.001,46.968-0.001,56.74c0,11.378,9.223,20.601,20.601,20.601h26.176V76.01c0-0.546,0.082-1.094,0.228-1.639    c-0.146-0.555-0.228-1.142-0.228-1.766V69.2c0-0.545,0.082-1.092,0.228-1.637c-0.146-0.556-0.228-1.143-0.228-1.767v-3.402    c0-0.546,0.082-1.095,0.228-1.64c-0.146-0.557-0.228-1.144-0.228-1.768v-3.401c0-7.183,10.146-9.742,19.643-9.742    c9.495,0,19.642,2.56,19.642,9.742v3.401c0,0.624-0.081,1.211-0.228,1.768c0.146,0.545,0.228,1.094,0.228,1.64v3.402    c0,0.624-0.081,1.211-0.228,1.767c0.146,0.545,0.228,1.092,0.228,1.637v3.405c0,0.624-0.081,1.211-0.228,1.766    c0.146,0.545,0.228,1.093,0.228,1.639v1.331h24.168c11.377,0,20.601-9.223,20.601-20.601    C130.827,45.365,121.603,36.14,110.227,36.14z"/></g></g><g id="Layer_1_1_"/></svg>