<?xml version="1.0" ?><!DOCTYPE svg  PUBLIC '-//W3C//DTD SVG 1.0//EN'  'http://www.w3.org/TR/2001/REC-SVG-20010904/DTD/svg10.dtd'><svg enable-background="new 0 0 16 16" height="100px" id="Layer_1" version="1.0" viewBox="0 0 16 16" width="100px" xml:space="preserve" xmlns="http://www.w3.org/2000/svg" xmlns:xlink="http://www.w3.org/1999/xlink"><g><defs><rect height="16" id="SVGID_1_" width="16"/></defs><path d="M11.375,11.533c-0.459,0.46-0.994,0.82-1.59,1.072   c-1.231,0.521-2.66,0.521-3.891,0c-0.596-0.252-1.131-0.612-1.59-1.072l-0.071-0.086h1.504c0.275,0,0.365-0.181,0.2-0.4   L4.923,9.689c-0.165-0.22-0.434-0.58-0.599-0.801L3.309,7.531c-0.164-0.221-0.434-0.22-0.599,0L1.696,8.889   C1.531,9.108,1.262,9.47,1.097,9.689l-1.014,1.357c-0.165,0.22-0.075,0.4,0.2,0.4h1.47c0.309,0.546,0.687,1.05,1.137,1.5   c0.642,0.643,1.391,1.147,2.224,1.5c0.864,0.365,1.781,0.551,2.725,0.551c0.945,0,1.862-0.186,2.726-0.551   c0.834-0.353,1.582-0.857,2.225-1.5s1.146-1.392,1.5-2.225l-1.842-0.779C12.195,10.538,11.834,11.073,11.375,11.533" fill="#1D1D1B"/><path d="M15.34,4.79h-1.283c-0.331-0.64-0.752-1.226-1.268-1.741   c-0.643-0.643-1.391-1.148-2.225-1.5c-1.728-0.731-3.723-0.731-5.451,0c-0.833,0.352-1.582,0.857-2.225,1.5   C2.247,3.692,1.743,4.44,1.39,5.273l1.842,0.78c0.252-0.595,0.613-1.13,1.072-1.59s0.994-0.82,1.59-1.072   c1.231-0.522,2.66-0.522,3.891,0c0.596,0.252,1.131,0.612,1.59,1.072c0.101,0.101,0.178,0.219,0.27,0.327H9.886   c-0.275,0-0.372,0.186-0.216,0.412l1.045,1.517c0.156,0.226,0.412,0.597,0.568,0.824l1.046,1.517c0.155,0.227,0.411,0.227,0.567,0   l1.046-1.517c0.155-0.227,0.411-0.598,0.567-0.824l1.046-1.517C15.711,4.976,15.614,4.79,15.34,4.79" fill="#1D1D1B"/></g></svg>